<svg xmlns="http://www.w3.org/2000/svg" viewBox="0 0 200 200" width="200" height="200">
  <!-- Fondo circular azul -->
  <circle cx="100" cy="100" r="95" fill="#0d6efd" opacity="0.1"/>
  
  <!-- Cuaderno/Documento -->
  <rect x="50" y="40" width="100" height="120" rx="8" fill="#0d6efd"/>
  <rect x="55" y="45" width="90" height="110" rx="6" fill="#ffffff"/>
  
  <!-- Líneas del cuaderno -->
  <line x1="70" y1="70" x2="130" y2="70" stroke="#0d6efd" stroke-width="3" stroke-linecap="round" opacity="0.6"/>
  <line x1="70" y1="85" x2="130" y2="85" stroke="#0d6efd" stroke-width="3" stroke-linecap="round" opacity="0.6"/>
  <line x1="70" y1="100" x2="110" y2="100" stroke="#0d6efd" stroke-width="3" stroke-linecap="round" opacity="0.6"/>
  
  <!-- Maletín profesional (parte inferior) -->
  <rect x="60" y="115" width="80" height="50" rx="4" fill="#198754"/>
  <rect x="65" y="120" width="70" height="40" rx="3" fill="#20c997"/>
  
  <!-- Asa del maletín -->
  <path d="M 85 115 Q 85 105, 95 105 Q 105 105, 105 115" 
        stroke="#198754" stroke-width="4" fill="none" stroke-linecap="round"/>
  
  <!-- Cierre del maletín -->
  <rect x="95" y="135" width="10" height="15" rx="2" fill="#ffffff" opacity="0.8"/>
  
  <!-- Detalles del maletín -->
  <line x1="75" y1="125" x2="75" y2="155" stroke="#198754" stroke-width="2" opacity="0.3"/>
  <line x1="125" y1="125" x2="125" y2="155" stroke="#198754" stroke-width="2" opacity="0.3"/>
  
  <!-- Check mark (símbolo de validación) -->
  <circle cx="140" cy="60" r="18" fill="#198754"/>
  <path d="M 132 60 L 137 66 L 148 54" 
        stroke="#ffffff" stroke-width="4" fill="none" 
        stroke-linecap="round" stroke-linejoin="round"/>
</svg>
